<?xml version="1.0" encoding="UTF-8" standalone="no"?>
<!DOCTYPE svg PUBLIC "-//W3C//DTD SVG 1.1//EN" "http://www.w3.org/Graphics/SVG/1.1/DTD/svg11.dtd">
<svg width="100%" height="100%" viewBox="0 0 124 99" version="1.1" xmlns="http://www.w3.org/2000/svg" xmlns:xlink="http://www.w3.org/1999/xlink" xml:space="preserve" xmlns:serif="http://www.serif.com/" style="fill-rule:evenodd;clip-rule:evenodd;stroke-linejoin:round;stroke-miterlimit:2;">
    <g transform="matrix(1,0,0,1,28.73,-0.29)">
        <g transform="matrix(1,0,0,1,-105,63)">
            <path d="M76.28,22.74C76.28,20.81 76.56,19.06 77.11,17.5C77.67,15.94 78.46,14.61 79.5,13.51C80.54,12.41 81.79,11.56 83.26,10.97C84.73,10.38 86.37,10.08 88.19,10.08C89.74,10.08 91.15,10.29 92.44,10.71C93.73,11.13 94.86,11.75 95.85,12.57C96.84,13.39 97.66,14.4 98.32,15.59C98.98,16.78 99.45,18.16 99.72,19.7L94.6,19.7C94.24,17.95 93.49,16.59 92.36,15.62C91.23,14.65 89.82,14.17 88.11,14.17C87.06,14.17 86.12,14.37 85.27,14.77C84.43,15.17 83.71,15.73 83.12,16.46C82.53,17.19 82.07,18.08 81.74,19.14C81.41,20.2 81.24,21.39 81.24,22.71C81.24,25.4 81.86,27.5 83.1,29.01C84.34,30.52 86.03,31.28 88.17,31.28C89.95,31.28 91.39,30.77 92.51,29.74C93.63,28.71 94.34,27.24 94.66,25.3L99.78,25.3C99.55,26.89 99.11,28.32 98.47,29.57C97.82,30.82 97,31.88 96,32.73C95,33.58 93.83,34.24 92.5,34.69C91.17,35.15 89.71,35.37 88.11,35.37C86.31,35.37 84.68,35.07 83.23,34.48C81.77,33.89 80.53,33.05 79.49,31.95C78.45,30.86 77.66,29.53 77.1,27.97C76.54,26.41 76.27,24.66 76.27,22.73L76.28,22.74Z" style="fill-rule:nonzero;"/>
            <path d="M100.96,30.18C100.96,28.61 101.49,27.39 102.55,26.51C103.61,25.64 105.22,25 107.38,24.62L113.93,23.43L113.93,23.29C113.93,22.04 113.59,21.1 112.91,20.49C112.23,19.87 111.27,19.57 110.04,19.57C108.81,19.57 107.84,19.88 107.19,20.49C106.54,21.1 106.15,21.97 106.01,23.08L101.2,23.08C101.41,20.74 102.3,18.96 103.9,17.74C105.49,16.52 107.55,15.91 110.08,15.91C112.79,15.91 114.89,16.58 116.38,17.91C117.87,19.24 118.62,21.16 118.62,23.66L118.62,34.92L114.22,34.92L114.12,32.19C113.55,33.1 112.66,33.86 111.44,34.46C110.22,35.06 108.82,35.36 107.22,35.36C106.38,35.36 105.57,35.26 104.81,35.05C104.05,34.84 103.38,34.53 102.81,34.11C102.24,33.69 101.79,33.15 101.46,32.5C101.13,31.85 100.97,31.07 100.97,30.16L100.96,30.18ZM105.81,29.53C105.81,30.28 106.09,30.84 106.65,31.22C107.21,31.6 107.96,31.78 108.92,31.78C110.44,31.78 111.66,31.35 112.57,30.48C113.48,29.61 113.93,28.47 113.93,27.03L113.93,26.14L108.71,27.13C107.66,27.34 106.92,27.63 106.47,28C106.03,28.38 105.8,28.88 105.8,29.52L105.81,29.53Z" style="fill-rule:nonzero;"/>
            <path d="M124.99,28.67C125.08,29.7 125.47,30.48 126.15,31.03C126.83,31.58 127.82,31.85 129.12,31.85C130.1,31.85 130.92,31.68 131.58,31.34C132.24,31 132.57,30.46 132.57,29.74C132.57,29.31 132.45,28.96 132.23,28.7C132.01,28.44 131.68,28.22 131.26,28.05C130.84,27.88 130.34,27.74 129.76,27.62C129.18,27.51 128.55,27.39 127.87,27.28C127.07,27.14 126.25,26.99 125.4,26.8C124.55,26.62 123.77,26.33 123.06,25.93C122.35,25.53 121.77,25.01 121.32,24.36C120.86,23.71 120.64,22.86 120.64,21.82C120.64,20.04 121.33,18.62 122.71,17.54C124.09,16.46 126.05,15.92 128.6,15.92C131.15,15.92 133.3,16.51 134.71,17.7C136.12,18.89 136.92,20.45 137.1,22.41L132.35,22.41C132.23,21.45 131.85,20.72 131.19,20.21C130.53,19.7 129.64,19.44 128.53,19.44C127.5,19.44 126.74,19.63 126.24,20.02C125.74,20.41 125.49,20.88 125.49,21.45C125.49,21.86 125.61,22.2 125.85,22.47C126.09,22.74 126.41,22.97 126.82,23.15C127.23,23.33 127.71,23.47 128.25,23.58C128.8,23.68 129.39,23.79 130.03,23.9C130.89,24.04 131.76,24.2 132.64,24.4C133.52,24.6 134.31,24.89 135.01,25.29C135.72,25.69 136.3,26.22 136.75,26.88C137.21,27.54 137.43,28.42 137.43,29.51C137.43,30.49 137.23,31.35 136.83,32.09C136.43,32.83 135.87,33.44 135.14,33.93C134.41,34.42 133.54,34.78 132.53,35.02C131.52,35.26 130.4,35.38 129.17,35.38C126.33,35.38 124.16,34.78 122.67,33.59C121.18,32.4 120.38,30.76 120.26,28.69L125.01,28.69L124.99,28.67Z" style="fill-rule:nonzero;"/>
            <path d="M140.73,20.28L137.93,20.28L137.93,16.36L140.73,16.36L140.73,11.78L145.47,11.78L145.47,16.36L151.65,16.36L151.65,20.28L145.47,20.28L145.47,28.06C145.47,29.31 145.76,30.16 146.34,30.6C146.92,31.04 147.79,31.27 148.95,31.27C149.34,31.27 149.76,31.25 150.23,31.22C150.7,31.19 151.17,31.11 151.65,31L151.65,34.92C150.85,35.08 150.12,35.19 149.45,35.26C148.78,35.33 148.14,35.36 147.52,35.36C145.22,35.36 143.51,34.79 142.4,33.65C141.28,32.51 140.73,30.7 140.73,28.22L140.73,20.26L140.73,20.28Z" style="fill-rule:nonzero;"/>
            <path d="M152.51,25.6C152.51,24.17 152.74,22.85 153.19,21.66C153.64,20.46 154.29,19.44 155.14,18.59C155.98,17.74 156.99,17.08 158.16,16.61C159.33,16.14 160.65,15.91 162.1,15.91C163.55,15.91 164.83,16.14 165.97,16.59C167.12,17.05 168.1,17.7 168.91,18.54C169.72,19.38 170.34,20.38 170.77,21.54C171.2,22.7 171.42,24 171.42,25.43L171.42,26.86L157.42,26.86C157.6,28.32 158.1,29.47 158.9,30.31C159.71,31.15 160.78,31.57 162.13,31.57C163.15,31.57 164.01,31.33 164.69,30.85C165.37,30.37 165.89,29.7 166.23,28.84L171.25,28.84C170.98,29.84 170.57,30.75 170.02,31.55C169.47,32.36 168.81,33.04 168.02,33.6C167.24,34.16 166.34,34.59 165.34,34.9C164.34,35.21 163.26,35.36 162.1,35.36C160.64,35.36 159.33,35.13 158.16,34.66C156.99,34.19 155.98,33.53 155.14,32.68C154.3,31.83 153.65,30.8 153.19,29.59C152.73,28.38 152.51,27.05 152.51,25.6ZM166.61,24.13C166.45,22.77 165.98,21.69 165.21,20.89C164.44,20.09 163.4,19.69 162.1,19.69C160.8,19.69 159.76,20.09 158.96,20.89C158.16,21.69 157.66,22.77 157.46,24.13L166.61,24.13Z" style="fill-rule:nonzero;"/>
            <rect x="173.57" y="9.83" width="4.71" height="25.09" style="fill-rule:nonzero;"/>
            <path d="M180.43,25.64C180.43,24.18 180.66,22.86 181.11,21.66C181.56,20.46 182.21,19.44 183.06,18.59C183.9,17.74 184.92,17.08 186.11,16.61C187.31,16.14 188.63,15.91 190.09,15.91C191.55,15.91 192.87,16.14 194.05,16.61C195.23,17.08 196.25,17.74 197.09,18.59C197.93,19.44 198.58,20.47 199.03,21.66C199.49,22.86 199.71,24.18 199.71,25.64C199.71,27.1 199.48,28.42 199.03,29.62C198.58,30.81 197.93,31.84 197.09,32.69C196.25,33.54 195.23,34.2 194.05,34.67C192.87,35.14 191.55,35.37 190.09,35.37C188.63,35.37 187.31,35.14 186.11,34.67C184.92,34.2 183.9,33.54 183.06,32.69C182.22,31.84 181.57,30.81 181.11,29.62C180.65,28.42 180.43,27.1 180.43,25.64ZM185.28,25.64C185.28,27.42 185.7,28.83 186.54,29.87C187.38,30.92 188.56,31.44 190.09,31.44C191.62,31.44 192.8,30.92 193.64,29.87C194.48,28.82 194.9,27.41 194.9,25.64C194.9,23.87 194.48,22.45 193.64,21.41C192.8,20.36 191.61,19.84 190.09,19.84C188.57,19.84 187.38,20.36 186.54,21.41C185.7,22.46 185.28,23.87 185.28,25.64Z" style="fill-rule:nonzero;"/>
        </g>
        <path d="M66.73,16.4C66.73,7.5 59.52,0.29 50.63,0.29C41.73,0.29 34.52,7.5 34.52,16.4L34.52,32.51L50.63,32.51C59.53,32.51 66.74,25.3 66.74,16.4L66.73,16.4Z" style="fill:rgb(0,84,34);fill-rule:nonzero;"/>
        <path d="M50.59,34.49C41.69,34.49 34.48,41.7 34.48,50.6C34.48,59.5 41.69,66.71 50.59,66.71L66.7,66.71L66.7,50.6C66.7,41.7 59.49,34.49 50.59,34.49Z" style="fill:rgb(0,84,34);fill-rule:nonzero;"/>
        <path d="M0.28,50.6C0.28,59.5 7.49,66.71 16.39,66.71C25.29,66.71 32.5,59.5 32.5,50.6L32.5,34.49L16.39,34.49C7.49,34.49 0.28,41.71 0.28,50.6Z" style="fill:rgb(0,84,34);fill-rule:nonzero;"/>
        <path d="M16.42,0.29L0.31,0.29L0.31,16.4C0.31,25.3 7.52,32.51 16.42,32.51C25.32,32.51 32.53,25.3 32.53,16.4C32.53,7.5 25.32,0.29 16.42,0.29Z" style="fill:rgb(0,84,34);fill-rule:nonzero;"/>
    </g>
</svg>
