<?xml version="1.0" encoding="UTF-8"?>
<svg id="Layer_1" data-name="Layer 1" xmlns="http://www.w3.org/2000/svg" viewBox="0 0 200 67">

  <g>
    <g>
      <path d="M76.28,22.74c0-1.93.28-3.68.83-5.24.56-1.56,1.35-2.89,2.39-3.99s2.29-1.95,3.76-2.54,3.11-.89,4.93-.89c1.55,0,2.96.21,4.25.63,1.29.42,2.42,1.04,3.41,1.86.99.82,1.81,1.83,2.47,3.02s1.13,2.57,1.4,4.11h-5.12c-.36-1.75-1.11-3.11-2.24-4.08-1.13-.97-2.54-1.45-4.25-1.45-1.05,0-1.99.2-2.84.6-.84.4-1.56.96-2.15,1.69s-1.05,1.62-1.38,2.68c-.33,1.06-.5,2.25-.5,3.57,0,2.69.62,4.79,1.86,6.3,1.24,1.51,2.93,2.27,5.07,2.27,1.78,0,3.22-.51,4.34-1.54s1.83-2.5,2.15-4.44h5.12c-.23,1.59-.67,3.02-1.31,4.27-.65,1.25-1.47,2.31-2.47,3.16-1,.85-2.17,1.51-3.5,1.96-1.33.46-2.79.68-4.39.68-1.8,0-3.43-.3-4.88-.89-1.46-.59-2.7-1.43-3.74-2.53-1.04-1.09-1.83-2.42-2.39-3.98-.56-1.56-.83-3.31-.83-5.24Z"/>
      <path d="M100.96,30.18c0-1.57.53-2.79,1.59-3.67,1.06-.87,2.67-1.51,4.83-1.89l6.55-1.19v-.14c0-1.25-.34-2.19-1.02-2.8-.68-.62-1.64-.92-2.87-.92s-2.2.31-2.85.92c-.65.61-1.04,1.48-1.18,2.59h-4.81c.21-2.34,1.1-4.12,2.7-5.34,1.59-1.22,3.65-1.83,6.18-1.83,2.71,0,4.81.67,6.3,2,1.49,1.33,2.24,3.25,2.24,5.75v11.26h-4.4l-.1-2.73c-.57.91-1.46,1.67-2.68,2.27-1.22.6-2.62.9-4.22.9-.84,0-1.65-.1-2.41-.31-.76-.21-1.43-.52-2-.94-.57-.42-1.02-.96-1.35-1.61-.33-.65-.49-1.43-.49-2.34ZM105.81,29.53c0,.75.28,1.31.84,1.69.56.38,1.31.56,2.27.56,1.52,0,2.74-.43,3.65-1.3s1.36-2.01,1.36-3.45v-.89l-5.22.99c-1.05.21-1.79.5-2.24.87-.44.38-.67.88-.67,1.52Z"/>
      <path d="M124.99,28.67c.09,1.03.48,1.81,1.16,2.36s1.67.82,2.97.82c.98,0,1.8-.17,2.46-.51.66-.34.99-.88.99-1.6,0-.43-.12-.78-.34-1.04s-.55-.48-.97-.65c-.42-.17-.92-.31-1.5-.43-.58-.11-1.21-.23-1.89-.34-.8-.14-1.62-.29-2.47-.48-.85-.18-1.63-.47-2.34-.87s-1.29-.92-1.74-1.57c-.46-.65-.68-1.5-.68-2.54,0-1.78.69-3.2,2.07-4.28,1.38-1.08,3.34-1.62,5.89-1.62s4.7.59,6.11,1.78,2.21,2.75,2.39,4.71h-4.75c-.12-.96-.5-1.69-1.16-2.2s-1.55-.77-2.66-.77c-1.03,0-1.79.19-2.29.58-.5.39-.75.86-.75,1.43,0,.41.12.75.36,1.02s.56.5.97.68c.41.18.89.32,1.43.43.55.1,1.14.21,1.78.32.86.14,1.73.3,2.61.5s1.67.49,2.37.89c.71.4,1.29.93,1.74,1.59.46.66.68,1.54.68,2.63,0,.98-.2,1.84-.6,2.58-.4.74-.96,1.35-1.69,1.84-.73.49-1.6.85-2.61,1.09-1.01.24-2.13.36-3.36.36-2.84,0-5.01-.6-6.5-1.79-1.49-1.19-2.29-2.83-2.41-4.9h4.75Z"/>
      <path d="M140.73,20.28h-2.8v-3.92h2.8v-4.58h4.74v4.58h6.18v3.92h-6.18v7.78c0,1.25.29,2.1.87,2.54.58.44,1.45.67,2.61.67.39,0,.81-.02,1.28-.05s.94-.11,1.42-.22v3.92c-.8.16-1.53.27-2.2.34-.67.07-1.31.1-1.93.1-2.3,0-4.01-.57-5.12-1.71-1.12-1.14-1.67-2.95-1.67-5.43v-7.96Z"/>
      <path d="M152.51,25.6c0-1.43.23-2.75.68-3.94.45-1.2,1.1-2.22,1.95-3.07.84-.85,1.85-1.51,3.02-1.98,1.17-.47,2.49-.7,3.94-.7s2.73.23,3.87.68c1.15.46,2.13,1.11,2.94,1.95.81.84,1.43,1.84,1.86,3,.43,1.16.65,2.46.65,3.89v1.43h-14c.18,1.46.68,2.61,1.48,3.45.81.84,1.88,1.26,3.23,1.26,1.02,0,1.88-.24,2.56-.72.68-.48,1.2-1.15,1.54-2.01h5.02c-.27,1-.68,1.91-1.23,2.71-.55.81-1.21,1.49-2,2.05-.78.56-1.68.99-2.68,1.3-1,.31-2.08.46-3.24.46-1.46,0-2.77-.23-3.94-.7-1.17-.47-2.18-1.13-3.02-1.98-.84-.85-1.49-1.88-1.95-3.09-.46-1.21-.68-2.54-.68-3.99ZM166.61,24.13c-.16-1.36-.63-2.44-1.4-3.24-.77-.8-1.81-1.2-3.11-1.2s-2.34.4-3.14,1.2-1.3,1.88-1.5,3.24h9.15Z"/>
      <path d="M173.57,9.83h4.71v25.09h-4.71V9.83Z"/>
      <path d="M180.43,25.64c0-1.46.23-2.78.68-3.98.45-1.2,1.1-2.22,1.95-3.07.84-.85,1.86-1.51,3.05-1.98,1.2-.47,2.52-.7,3.98-.7s2.78.23,3.96.7,2.2,1.13,3.04,1.98c.84.85,1.49,1.88,1.94,3.07.46,1.2.68,2.52.68,3.98s-.23,2.78-.68,3.98c-.45,1.19-1.1,2.22-1.94,3.07-.84.85-1.86,1.51-3.04,1.98s-2.5.7-3.96.7-2.78-.23-3.98-.7c-1.19-.47-2.21-1.13-3.05-1.98-.84-.85-1.49-1.88-1.95-3.07-.46-1.2-.68-2.52-.68-3.98ZM185.28,25.64c0,1.78.42,3.19,1.26,4.23.84,1.05,2.02,1.57,3.55,1.57s2.71-.52,3.55-1.57c.84-1.05,1.26-2.46,1.26-4.23s-.42-3.19-1.26-4.23c-.84-1.05-2.03-1.57-3.55-1.57s-2.71.52-3.55,1.57c-.84,1.05-1.26,2.46-1.26,4.23Z"/>
    </g>
    <g>
      <path d="M77.4,45.69h1.43v7.73h4.56v1.26h-5.99v-8.99Z"/>
      <path d="M83.66,51.27c0-.53.08-1.01.25-1.45s.39-.81.69-1.13c.3-.31.66-.56,1.08-.73.42-.17.89-.26,1.4-.26s.99.09,1.41.26c.42.17.78.42,1.08.73.3.31.53.69.69,1.13s.25.92.25,1.45-.08,1.01-.25,1.45-.39.82-.69,1.13c-.3.31-.66.56-1.08.73-.42.17-.89.26-1.41.26s-.98-.09-1.4-.26c-.42-.17-.78-.41-1.08-.73-.3-.31-.53-.69-.69-1.13s-.25-.92-.25-1.45ZM85.09,51.27c0,.71.17,1.28.52,1.72.35.43.83.65,1.46.65s1.11-.22,1.46-.65c.34-.43.51-1,.51-1.72s-.17-1.27-.52-1.7c-.35-.43-.83-.65-1.45-.65-.31,0-.59.06-.84.17s-.45.27-.62.48-.3.45-.39.74-.14.61-.14.96Z"/>
      <path d="M92.87,54.61c.05.43.24.77.58.99.33.23.73.34,1.2.34.26,0,.5-.04.72-.11.22-.08.4-.19.56-.35s.28-.36.36-.62.13-.55.13-.89v-.8c-.21.4-.52.71-.92.92-.4.21-.85.32-1.36.32-.44,0-.83-.08-1.2-.24s-.68-.39-.94-.69c-.26-.3-.46-.65-.6-1.06-.14-.41-.21-.87-.21-1.37s.07-.96.21-1.37c.14-.41.34-.76.6-1.06.26-.29.56-.52.93-.68s.77-.24,1.2-.24c.51,0,.98.11,1.4.33.42.22.74.55.94.98l.04-1.14h1.31v6.06c0,.56-.08,1.04-.24,1.44-.16.4-.38.73-.66.98-.28.26-.62.44-1,.57-.39.12-.81.18-1.28.18-.39,0-.77-.05-1.14-.14-.36-.09-.69-.24-.98-.44s-.53-.46-.72-.77c-.19-.31-.31-.69-.36-1.14h1.43ZM92.62,51.07c0,.7.16,1.23.48,1.6s.78.55,1.38.55,1.08-.19,1.42-.56c.34-.38.52-.91.52-1.58s-.17-1.21-.52-1.59c-.34-.38-.82-.57-1.42-.57s-1.05.19-1.38.56-.48.91-.48,1.6Z"/>
      <path d="M98.69,51.27c0-.53.08-1.01.25-1.45s.39-.81.69-1.13c.3-.31.66-.56,1.08-.73.42-.17.89-.26,1.4-.26s.99.09,1.41.26c.42.17.78.42,1.08.73.3.31.53.69.69,1.13s.25.92.25,1.45-.08,1.01-.25,1.45-.39.82-.69,1.13c-.3.31-.66.56-1.08.73-.42.17-.89.26-1.41.26s-.98-.09-1.4-.26c-.42-.17-.78-.41-1.08-.73-.3-.31-.53-.69-.69-1.13s-.25-.92-.25-1.45ZM100.13,51.27c0,.71.17,1.28.52,1.72.35.43.83.65,1.46.65s1.11-.22,1.46-.65c.34-.43.51-1,.51-1.72s-.17-1.27-.52-1.7c-.35-.43-.83-.65-1.45-.65-.31,0-.59.06-.84.17s-.45.27-.62.48-.3.45-.39.74-.14.61-.14.96Z"/>
      <path d="M107.69,47.88l.04,1.14c.21-.43.52-.76.94-.98.42-.22.87-.33,1.37-.33.44,0,.85.09,1.22.26.37.17.68.41.94.72.26.31.46.68.6,1.12.14.43.21.92.21,1.46s-.07,1.02-.21,1.46c-.14.44-.34.81-.6,1.13-.26.31-.57.56-.94.73-.37.17-.78.26-1.22.26-.5,0-.95-.11-1.34-.32-.39-.21-.7-.52-.91-.92v3.38h-1.39v-9.1h1.29ZM107.79,51.3c0,.74.17,1.31.51,1.72.34.41.81.62,1.41.62s1.06-.2,1.38-.6c.32-.4.48-.98.48-1.75s-.16-1.33-.48-1.74c-.32-.41-.78-.61-1.38-.61s-1.08.21-1.41.63c-.34.42-.51,1-.51,1.73Z"/>
      <path d="M113.73,51.27c0-.53.08-1.01.24-1.45.16-.44.39-.81.68-1.13.3-.31.65-.55,1.07-.72.41-.17.88-.26,1.39-.26s.96.08,1.36.25.76.4,1.04.7c.29.3.51.67.67,1.09s.23.89.23,1.41v.53h-5.23c.07.6.27,1.08.6,1.44s.78.53,1.34.53c.43,0,.78-.1,1.07-.31s.49-.49.63-.86h1.5c-.19.72-.57,1.29-1.14,1.72-.57.42-1.26.63-2.07.63-.51,0-.98-.09-1.39-.26-.42-.17-.78-.41-1.08-.73-.3-.31-.53-.69-.68-1.13-.16-.44-.24-.92-.24-1.45ZM118.97,50.73c-.07-.56-.26-1.01-.57-1.34-.31-.33-.74-.5-1.28-.5s-.98.17-1.31.5c-.33.33-.53.78-.62,1.34h3.77Z"/>
      <path d="M126.43,54.68l-.04-1.14c-.2.44-.51.76-.93.98-.42.22-.88.33-1.38.33-.44,0-.85-.09-1.21-.26s-.68-.41-.94-.72c-.26-.31-.46-.68-.6-1.12-.14-.44-.21-.92-.21-1.46s.07-1.02.21-1.46c.14-.44.34-.81.6-1.13.26-.31.57-.56.94-.73.36-.17.77-.26,1.21-.26.5,0,.95.11,1.35.32.4.21.7.52.91.92v-3.52h1.39v9.24h-1.31ZM126.35,51.26c0-.74-.17-1.31-.52-1.72-.34-.41-.82-.62-1.42-.62s-1.05.2-1.38.6c-.32.4-.48.98-.48,1.75s.16,1.33.48,1.74.78.61,1.38.61,1.08-.21,1.42-.63c.34-.42.52-1,.52-1.74Z"/>
      <path d="M128.8,45.51h1.48v1.5h-1.48v-1.5ZM128.83,47.88h1.39v6.8h-1.39v-6.8Z"/>
      <path d="M131.11,52.92c0-.55.19-.99.57-1.31.38-.32.97-.56,1.76-.7l2.49-.44v-.06c0-.5-.14-.88-.42-1.14-.28-.26-.68-.39-1.19-.39s-.89.12-1.16.37c-.27.25-.44.59-.51,1.04h-1.44c.07-.79.39-1.42.94-1.88.55-.46,1.28-.69,2.21-.69s1.68.25,2.21.74.78,1.18.78,2.07v4.16h-1.29l-.04-1.04c-.2.34-.54.63-1,.86-.46.23-.99.34-1.58.34-.33,0-.63-.04-.91-.12s-.53-.2-.74-.36c-.21-.16-.37-.36-.49-.6s-.18-.52-.18-.84ZM132.58,52.77c0,.32.11.56.34.71s.54.23.94.23c.31,0,.59-.05.85-.14s.47-.22.65-.39c.18-.17.32-.36.41-.6s.15-.48.15-.75v-.41l-2.16.4c-.44.08-.75.19-.92.35s-.26.35-.26.6Z"/>
    </g>
  </g>
  <g>
    <path fill="#005422" d="M66.73,16.4C66.73,7.5,59.52.29,50.63.29h0c-8.9,0-16.11,7.21-16.11,16.11v16.11h16.11c8.9,0,16.11-7.21,16.11-16.11Z"/>
    <path fill="#005422" d="M50.59,34.49h0c-8.9,0-16.11,7.21-16.11,16.11s7.21,16.11,16.11,16.11h16.11v-16.11c0-8.9-7.21-16.11-16.11-16.11Z"/>
    <path fill="#005422" d="M.28,50.6c0,8.9,7.21,16.11,16.11,16.11s16.11-7.21,16.11-16.11v-16.11h-16.11C7.49,34.49.28,41.71.28,50.6Z"/>
    <path fill="#005422" d="M16.42.29H.31v16.11c0,8.9,7.21,16.11,16.11,16.11s16.11-7.21,16.11-16.11S25.32.29,16.42.29Z"/>
  </g>
</svg>