<?xml version="1.0" encoding="UTF-8" standalone="no"?>
<!DOCTYPE svg PUBLIC "-//W3C//DTD SVG 1.1//EN" "http://www.w3.org/Graphics/SVG/1.1/DTD/svg11.dtd">
<svg width="100%" height="100%" viewBox="0 0 166 166" version="1.1" xmlns="http://www.w3.org/2000/svg" xmlns:xlink="http://www.w3.org/1999/xlink" xml:space="preserve" xmlns:serif="http://www.serif.com/" style="fill-rule:evenodd;clip-rule:evenodd;stroke-linejoin:round;stroke-miterlimit:2;">
    <g transform="matrix(1,0,0,1,-77.27,-77.31)">
        <path d="M242.73,117.42C242.73,95.27 224.77,77.31 202.62,77.31C180.47,77.31 162.51,95.27 162.51,117.42L162.51,157.53L202.62,157.53C224.77,157.53 242.73,139.57 242.73,117.42Z" style="fill:rgb(0,84,34);fill-rule:nonzero;"/>
        <path d="M202.54,162.48C180.39,162.48 162.43,180.44 162.43,202.59C162.43,224.74 180.39,242.7 202.54,242.7L242.65,242.7L242.65,202.59C242.65,180.44 224.69,162.48 202.54,162.48Z" style="fill:rgb(0,84,34);fill-rule:nonzero;"/>
        <path d="M77.27,202.58C77.27,224.73 95.23,242.69 117.38,242.69C139.53,242.69 157.49,224.73 157.49,202.58L157.49,162.47L117.38,162.47C95.23,162.47 77.27,180.43 77.27,202.58Z" style="fill:rgb(0,84,34);fill-rule:nonzero;"/>
        <path d="M117.46,77.31L77.35,77.31L77.35,117.42C77.35,139.57 95.31,157.53 117.46,157.53C139.61,157.53 157.57,139.57 157.57,117.42C157.57,95.27 139.61,77.31 117.46,77.31Z" style="fill:rgb(0,84,34);fill-rule:nonzero;"/>
    </g>
</svg>
